<svg width="76" height="88" viewBox="0 0 76 88" fill="none" xmlns="http://www.w3.org/2000/svg">
<path fill-rule="evenodd" clip-rule="evenodd" d="M36.7595 0.195846C37.219 -0.065282 37.7821 -0.065282 38.2416 0.195846C45.32 4.21802 62.1369 12.7604 73.218 15.1217C73.9104 15.2692 74.4054 15.8808 74.4054 16.5888C74.4054 18.0408 74.5092 19.8564 74.6335 22.0183L74.6374 22.087C75.1108 30.3236 75.8392 42.995 71.5264 55.4748C67.1687 68.0844 57.7052 80.3958 38.0353 87.9014C37.6909 88.0329 37.3102 88.0329 36.9658 87.9014C17.2959 80.3958 7.83243 68.0844 3.47476 55.4748C-0.838042 42.995 -0.109713 30.3236 0.363707 22.087L0.367656 22.0183C0.491912 19.8564 0.595705 18.0408 0.595705 16.5888C0.595705 15.8808 1.09069 15.2692 1.78309 15.1217C12.8642 12.7604 29.6811 4.21802 36.7595 0.195846ZM3.5774 17.7902C3.54136 19.0821 3.45669 20.5553 3.36495 22.1515L3.36271 22.1905C2.88721 30.464 2.20321 42.6106 6.31022 54.4949C10.3456 66.1719 19.0453 77.6949 37.5006 84.8923C55.9558 77.6949 64.6555 66.1719 68.6909 54.4949C72.7979 42.6106 72.1139 30.464 71.6384 22.1905L71.6362 22.1516C71.5444 20.5553 71.4598 19.0822 71.4237 17.7902C60.2852 15.1089 44.7247 7.26257 37.5006 3.22185C30.2764 7.26257 14.7159 15.1089 3.5774 17.7902Z" fill="#80CA16"/>
<path fill-rule="evenodd" clip-rule="evenodd" d="M32.5 31H41.5C45.9183 31 49.5 34.5817 49.5 39C49.5 43.4183 45.9183 47 41.5 47H31.5V50.5H38.5C39.3284 50.5 40 51.1716 40 52C40 52.8284 39.3284 53.5 38.5 53.5H31.5V55.5C31.5 56.3284 30.8284 57 30 57C29.1716 57 28.5 56.3284 28.5 55.5V53.5H27.5C26.6716 53.5 26 52.8284 26 52C26 51.1716 26.6716 50.5 27.5 50.5H28.5V35C28.5 32.7909 30.2909 31 32.5 31ZM41.5 34H32.5C31.9477 34 31.5 34.4477 31.5 35V44H41.5C44.2614 44 46.5 41.7614 46.5 39C46.5 36.2386 44.2614 34 41.5 34Z" fill="#80CA16"/>
<path fill-rule="evenodd" clip-rule="evenodd" d="M20.3933 17.9428C20.7009 18.712 20.3268 19.585 19.5577 19.8926L10.5006 23.5155V28.9999C10.5006 29.8283 9.82899 30.4999 9.00056 30.4999C8.17214 30.4999 7.50056 29.8283 7.50056 28.9999V22.4999C7.50056 21.8866 7.87399 21.335 8.44348 21.1072L18.4435 17.1072C19.2127 16.7995 20.0856 17.1736 20.3933 17.9428Z" fill="#80CA16"/>
<path fill-rule="evenodd" clip-rule="evenodd" d="M25.3933 15.9428C25.701 16.712 25.3268 17.585 24.5577 17.8926L23.9327 18.1426C23.1635 18.4503 22.2905 18.0762 21.9829 17.307C21.6752 16.5378 22.0493 15.6649 22.8185 15.3572L23.4435 15.1072C24.2127 14.7995 25.0856 15.1736 25.3933 15.9428Z" fill="#80CA16"/>
<path fill-rule="evenodd" clip-rule="evenodd" d="M59.2064 59.1765C59.9374 59.5664 60.2139 60.475 59.8241 61.2059C57.3632 65.82 53.4881 69.8084 49.0376 73.1939C48.3783 73.6955 47.4372 73.5675 46.9356 72.9082C46.434 72.2489 46.5619 71.3078 47.2213 70.8062C51.4597 67.582 54.9853 63.9037 57.177 59.7942C57.5669 59.0632 58.4755 58.7867 59.2064 59.1765ZM45.2646 74.0655C45.7106 74.7637 45.5062 75.6912 44.8081 76.1372C44.4696 76.3534 44.129 76.5669 43.7867 76.7775C43.0812 77.2117 42.1573 76.9917 41.7231 76.2862C41.2889 75.5807 41.5089 74.6567 42.2144 74.2226C42.5427 74.0206 42.869 73.816 43.193 73.609C43.8911 73.163 44.8186 73.3674 45.2646 74.0655Z" fill="#80CA16"/>
</svg>
