<svg width="85" height="89" viewBox="0 0 85 89" fill="none" xmlns="http://www.w3.org/2000/svg">
<path fill-rule="evenodd" clip-rule="evenodd" d="M14.8885 27.6085C14.9808 27.6064 15.0738 27.6053 15.1667 27.6053H18.0445C18.2778 28.7547 18.7645 29.812 19.4439 30.7164C20.8629 32.6056 23.1221 33.8275 25.6667 33.8275C28.2113 33.8275 30.4705 32.6056 31.8895 30.7164C32.5688 29.812 33.0555 28.7547 33.2889 27.6053H69.3778C69.6111 28.7547 70.0979 29.812 70.7772 30.7164C72.1962 32.6056 74.4554 33.8275 77 33.8275C81.2955 33.8275 84.7778 30.3453 84.7778 26.0497C84.7778 21.7542 81.2955 18.272 77 18.272C74.4554 18.272 72.1962 19.4939 70.7772 21.3831C70.0979 22.2875 69.6111 23.3448 69.3778 24.4942H33.2889C33.0555 23.3448 32.5688 22.2875 31.8895 21.3831C30.4705 19.4939 28.2113 18.272 25.6667 18.272C23.1221 18.272 20.8629 19.4939 19.4439 21.3831C18.7645 22.2875 18.2778 23.3448 18.0445 24.4942H15.1667C15.0736 24.4942 14.9807 24.495 14.8881 24.4967C6.6405 24.6455 0 31.3777 0 39.6609C0 48.0372 6.79035 54.8275 15.1667 54.8275H38.2667C38.9873 58.3777 42.1261 61.0498 45.8889 61.0498C49.6475 61.0498 52.7834 58.3837 53.5086 54.8395C53.5095 54.8355 53.5103 54.8315 53.5111 54.8275H69.6111C76.2692 54.8275 81.6667 60.225 81.6667 66.8831C81.6667 67.5398 81.6141 68.1843 81.513 68.8127C81.3702 69.7003 81.1305 70.5556 80.805 71.3675C80.6696 71.7052 80.5193 72.0354 80.355 72.3573C79.5432 73.9474 78.3888 75.3334 76.9892 76.418C76.1593 77.0611 75.2432 77.5982 74.2612 78.0091C74.1432 77.6589 74.0009 77.3198 73.8364 76.9939C73.5252 76.3775 73.1344 75.8081 72.6775 75.2993C71.2536 73.7137 69.1877 72.7164 66.8889 72.7164C64.3443 72.7164 62.0851 73.9384 60.6661 75.8275C59.9891 76.7288 59.5034 77.782 59.2691 78.9267C59.2683 78.9307 59.2675 78.9347 59.2667 78.9386H43.6876C42.8285 78.9386 42.1321 79.6351 42.1321 80.4942C42.1321 81.3533 42.8285 82.0498 43.6876 82.0498H59.2667C59.5 83.1991 59.9868 84.2564 60.6661 85.1609C62.0851 87.05 64.3443 88.272 66.8889 88.272C69.5118 88.272 71.8315 86.9736 73.2403 84.9845C73.9945 83.9197 74.4876 82.6569 74.6265 81.2894C74.6296 81.2589 74.6325 81.2284 74.6353 81.1978C75.2099 80.9961 75.7688 80.7608 76.3095 80.4942C76.8049 80.2499 77.285 79.9795 77.748 79.6845C80.5816 77.8796 82.7757 75.1596 83.9139 71.9409C84.4733 70.3594 84.7778 68.6571 84.7778 66.8831C84.7778 58.5068 77.9874 51.7164 69.6111 51.7164H53.5111C52.7904 48.1663 49.6517 45.4942 45.8889 45.4942C42.1303 45.4942 38.9944 48.1603 38.2691 51.7045C38.2683 51.7085 38.2675 51.7124 38.2667 51.7164H15.1667C8.50857 51.7164 3.11111 46.319 3.11111 39.6609C3.11111 33.0957 8.35888 27.7563 14.8885 27.6085ZM48.6831 49.5339C47.9041 48.9507 46.9368 48.6053 45.8889 48.6053C43.3116 48.6053 41.2222 50.6946 41.2222 53.272C41.2222 55.8493 43.3116 57.9386 45.8889 57.9386C48.4662 57.9386 50.5556 55.8493 50.5556 53.272C50.5556 51.7426 49.8199 50.385 48.6831 49.5339ZM62.2237 80.6151C62.2878 83.1365 64.352 85.1609 66.8889 85.1609C69.4662 85.1609 71.5555 83.0715 71.5555 80.4942C71.5555 80.4327 71.5544 80.3716 71.5521 80.3109C71.4558 77.8185 69.4048 75.8275 66.8889 75.8275C64.3721 75.8275 62.3207 77.8198 62.2256 80.3133C62.2234 80.3732 62.2222 80.4335 62.2222 80.4942C62.2222 80.5347 62.2227 80.5749 62.2237 80.6151ZM21.0004 25.9892C21.0001 26.0093 21 26.0295 21 26.0497C21 26.0788 21.0003 26.1078 21.0008 26.1367C21.0472 28.6739 23.1184 30.7164 25.6667 30.7164C28.2036 30.7164 30.2677 28.6921 30.3318 26.1706C30.3328 26.1305 30.3333 26.0902 30.3333 26.0497C30.3333 26.0061 30.3327 25.9626 30.3316 25.9194C30.2625 23.4023 28.2004 21.3831 25.6667 21.3831C23.1096 21.3831 21.0328 23.4398 21.0004 25.9892ZM72.3367 25.8688C72.3345 25.9287 72.3333 25.9891 72.3333 26.0497C72.3333 26.111 72.3345 26.1719 72.3368 26.2324C72.4327 28.7251 74.4838 30.7164 77 30.7164C79.5773 30.7164 81.6667 28.6271 81.6667 26.0497C81.6667 23.4724 79.5773 21.3831 77 21.3831C74.4833 21.3831 72.4318 23.3753 72.3367 25.8688Z" fill="#80CA16"/>
<path fill-rule="evenodd" clip-rule="evenodd" d="M78.6247 2.77163C78.6247 0.505448 76.0494 -0.799565 74.2219 0.54057L68.1306 5.00759C66.6231 6.11303 66.6231 8.36426 68.1306 9.4697L74.2219 13.9367C74.6617 14.2592 75.1447 14.4285 75.6248 14.4681V19.1719C75.6248 20.0003 76.2963 20.6719 77.1248 20.6719C77.9532 20.6719 78.6248 20.0003 78.6248 19.1719L78.6247 2.77163ZM70.1612 7.23864L75.6247 3.23208V11.2452L70.1612 7.23864Z" fill="#80CA16"/>
</svg>
